# xmcd CD database file
#
# Track frame offsets:
#	150
#	19049
#	33251
#	44671
#	57011
#	76930
#	96221
#	107221
#	118381
#	130130
#	142444
#	152941
#	163528
#	186519
#	206169
#
# Disc length: 2868 seconds
#
# Revision: 0
# Processed by: cddbd v1.5.2PL0 Copyright (c) Steve Scherf et al.
# Submitted via: CDex 1.70beta2
#
DISCID=de0b320f
DTITLE=Eric Legnini Trio - Ballads
DYEAR=2011
DGENRE=Jazz
TTITLE0=In a Sentimental Mood
TTITLE1=Don't Let Me Be Lonely Tonight
TTITLE2=Nightfall
TTITLE3=I Fall In Love
TTITLE4=Prelude To A Kiss
TTITLE5=Willow Weep For Me
TTITLE6=Trastevere
TTITLE7=Folk Song #1
TTITLE8=Portrait In Black And White "Zingaro"
TTITLE9=Smoke Gets In Your Eyes
TTITLE10=Amarone
TTITLE11=It Could Happen to You
TTITLE12=I Can't Get Started
TTITLE13=Darn That Dream
TTITLE14=Folk Song #2
EXTD=YEAR: 2011
EXTT0=
EXTT1=
EXTT2=
EXTT3=
EXTT4=
EXTT5=
EXTT6=
EXTT7=
EXTT8=
EXTT9=
EXTT10=
EXTT11=
EXTT12=
EXTT13=
EXTT14=
PLAYORDER=
